<?xml version="1.0" encoding="UTF-8"?>
<!DOCTYPE svg PUBLIC "-//W3C//DTD SVG 1.1//EN" "http://www.w3.org/Graphics/SVG/1.1/DTD/svg11.dtd">
<!-- Creator: CorelDRAW 2018 (64-Bit) -->
<svg xmlns="http://www.w3.org/2000/svg" xml:space="preserve" width="80mm" height="80mm" version="1.1" style="shape-rendering:geometricPrecision; text-rendering:geometricPrecision; image-rendering:optimizeQuality; fill-rule:evenodd; clip-rule:evenodd"
viewBox="0 0 8000 8000"
 xmlns:xlink="http://www.w3.org/1999/xlink">
 <defs>
  <style type="text/css">
   <![CDATA[
    .fil1 {fill:none}
    .fil0 {fill:#332C2B}
   ]]>
  </style>
 </defs>
 <g id="Layer_x0020_1">
  <metadata id="CorelCorpID_0Corel-Layer"/>
  <g id="_795692654160">
   <g>
    <path class="fil0" d="M4727.63 3985.13c-328.33,40.01 -747.32,156.7 -426.29,549.87 261.52,320.28 370.23,114.38 419.47,-163.77 -12.07,-133.18 -9.64,-269.1 6.82,-386.1zm301.57 481.98c8.48,91.32 22.85,170.94 44.36,220.1 107.56,-103.95 501.37,-610.47 512.46,-738.08 17.02,-195.96 191.91,-167.06 237.46,-77.38 4.75,9.35 8.65,22.99 11.94,40.11l1.02 -0.33 0.53 8.88c28.5,168.06 6.46,625.01 92.99,798.14 1.04,2.08 1.99,3.87 2.87,5.43 97.26,-71.78 275.03,-442.83 429.74,-700.59 11.57,-22.85 22.09,-43.21 30.94,-60.43l4.93 2.17c29.72,-46.93 58.25,-88.2 84.74,-120.56l80.64 193.65 15.84 7.49c-34.39,65.76 -97.36,191.81 -167.21,326.38 -93.6,222.07 -119.83,430.71 241.74,270.25 -71.18,-215.06 36.18,-497.16 251.49,-651.18 615.65,-440.37 435.36,429.41 -86.17,755.86 79.76,76.59 209.08,141.22 402.11,181.93 -229.65,13.26 -384.78,-44.76 -478,-139.46 -70.89,34.82 -147.08,59.19 -227.57,69.29 -177.27,22.24 -273.77,-20.89 -318.35,-99.37 -29.8,47.36 -55.94,84.04 -75.82,103.87 -320.16,319.41 -443.05,-91.08 -491.15,-453.18 -156.21,236.61 -382.7,600.22 -605.16,568.76 -64.44,-9.12 -118.57,-52.33 -162.76,-117.74 -296.2,332.19 -853.36,47.46 -981.05,-448.11 -169.28,-656.96 637.24,-763.54 1064.45,-796.77 96.65,0 175,78.35 175,175 0,52.13 -22.8,98.91 -58.95,130.97 6.46,193.92 -19.88,446.68 -23.97,481.49 -2.57,21.87 -5.7,42.86 -9.09,63.41zm1699.44 139.09c237.15,-127 365.3,-319.78 414.35,-576.42 -255.73,66.52 -490.14,340.44 -414.35,576.42z"/>
   </g>
   <path class="fil1" d="M4946.21 3791.24c-2069.79,0 34.87,2165.45 -52.92,288.77 -0.33,-7.14 23.23,-221.42 26.46,-262.31 -58.07,-23.03 -165.92,1773.71 483.05,661.46 73.04,-125.17 337.75,-353.34 308.43,-548.83 37.29,71.47 -25.55,1273.34 365.88,813.41 42.13,-49.51 757.63,-1395.62 278.19,-493.64 -486.76,915.77 866.32,518.15 866.32,-300.11 -559.26,0 -867.83,978.96 0,978.96"/>
   <g>
    <path class="fil0" d="M2884.12 3090.76c-2.24,45.27 -5.03,102.21 -9.06,167.73 36.19,19.03 72.12,42.1 126.22,82.51 373.94,279.3 936.04,574.55 843.96,1132.93 -84.45,512.06 -473.51,701.08 -938.23,664.31 -310.08,-24.54 -463.08,-99.06 -567.87,-219.18 -126.16,85.32 -282.1,112.25 -475.26,50.12 -622.97,-200.38 -409.16,-958.45 315.98,-776.12 96.21,24.19 139.62,91.19 173.31,174.37 125.37,-332.38 162.8,-839.19 175.01,-1108.04 -332.26,-300.97 -2128.47,-426.18 -1636.18,160.05 131.97,157.15 345.6,271.51 467.74,41.74 16.53,312.53 -466.92,180.55 -608.29,-83.85 -332.25,-621.46 1214.97,-625.16 1787.68,-328.25 18.7,-76.52 87.71,-133.32 169.99,-133.32 96.65,0 175,78.35 175,175zm-26.93 402.19c-36.03,388.91 -118.5,906.69 -326.62,1223.85 77.78,76.85 197.84,136.9 397.91,156.88l341.39 -5.33c505.33,-274.45 400.96,-749.53 14.67,-1063.21 -138.3,-112.3 -279.59,-217.22 -427.35,-312.19zm-683.14 1151.38c-26.07,-52.57 -53.88,-109.03 -86.35,-169.24 -146.94,-0.45 -469.77,42.16 -165.82,184.58 99.4,46.58 182.59,35.61 252.17,-15.34z"/>
   </g>
   <path class="fil1" d="M2709.12 3090.76c0,3118.22 -1938.29,1082.59 -573.02,1241.28 198.09,23.03 -1.04,795.32 1155.1,663.72 116.77,-13.29 1016.95,-693.45 -132.29,-1409.09 -262.02,-163.17 -158.25,-177.14 -514.05,-328.09 -35.76,-171.63 -1221.69,-488 -1693.33,-256.26 -572.85,281.46 345.84,902.36 408.21,458.86"/>
  </g>
 </g>
</svg>
